<svg xmlns="http://www.w3.org/2000/svg" width="1440" height="900" viewBox="0 0 1440 900" role="img" aria-labelledby="title description">
  <title id="title">Estro photo editor visual direction</title>
  <desc id="description">A dark browser photo editor with layers, a portrait canvas, tonal controls, a multi-photo filmstrip, and a reversible WebMCP adjustment proposal.</desc>

  <defs>
    <linearGradient id="agent-edge" x1="0" y1="0" x2="1" y2="0">
      <stop offset="0" stop-color="#56a8ff"/>
      <stop offset="0.58" stop-color="#747df4"/>
      <stop offset="1" stop-color="#a17df2"/>
    </linearGradient>
    <linearGradient id="portrait-sky" x1="0" y1="0" x2="0" y2="1">
      <stop offset="0" stop-color="#74869a"/>
      <stop offset="0.52" stop-color="#d69a7f"/>
      <stop offset="1" stop-color="#725f5c"/>
    </linearGradient>
    <linearGradient id="portrait-ground" x1="0" y1="0" x2="1" y2="1">
      <stop offset="0" stop-color="#314439"/>
      <stop offset="1" stop-color="#19251f"/>
    </linearGradient>
    <linearGradient id="thumb-a" x1="0" y1="0" x2="1" y2="1"><stop offset="0" stop-color="#c28a76"/><stop offset="1" stop-color="#2b4550"/></linearGradient>
    <linearGradient id="thumb-b" x1="0" y1="0" x2="1" y2="1"><stop offset="0" stop-color="#8d987b"/><stop offset="1" stop-color="#2b3030"/></linearGradient>
    <linearGradient id="thumb-c" x1="0" y1="0" x2="1" y2="1"><stop offset="0" stop-color="#a17b71"/><stop offset="1" stop-color="#3a3142"/></linearGradient>
    <linearGradient id="thumb-d" x1="0" y1="0" x2="1" y2="1"><stop offset="0" stop-color="#637f91"/><stop offset="1" stop-color="#222b35"/></linearGradient>
    <filter id="soft-shadow" x="-30%" y="-30%" width="160%" height="180%"><feDropShadow dx="0" dy="12" stdDeviation="20" flood-color="#050609" flood-opacity="0.5"/></filter>
    <filter id="agent-shadow" x="-30%" y="-30%" width="160%" height="180%"><feDropShadow dx="0" dy="12" stdDeviation="22" flood-color="#07080b" flood-opacity="0.7"/></filter>
    <clipPath id="photo-clip"><rect x="472" y="80" width="520" height="650" rx="3"/></clipPath>
    <clipPath id="proposed-half"><rect x="732" y="80" width="260" height="650"/></clipPath>

    <symbol id="i-chevron-left" viewBox="0 0 24 24"><path d="m15 18-6-6 6-6"/></symbol>
    <symbol id="i-chevron-down" viewBox="0 0 24 24"><path d="m6 9 6 6 6-6"/></symbol>
    <symbol id="i-search" viewBox="0 0 24 24"><circle cx="11" cy="11" r="7"/><path d="m20 20-3.5-3.5"/></symbol>
    <symbol id="i-plus" viewBox="0 0 24 24"><path d="M12 5v14M5 12h14"/></symbol>
    <symbol id="i-pointer" viewBox="0 0 24 24"><path d="m5 3 14 9-7 2-3 7z"/></symbol>
    <symbol id="i-crop" viewBox="0 0 24 24"><path d="M7 3v14h14M3 7h14v14"/></symbol>
    <symbol id="i-lasso" viewBox="0 0 24 24"><path d="M19 7c0 3-3 5-7 5S5 10 5 7s3-5 7-5 7 2 7 5Zm-7 5v5c0 3 5 2 5 0 0-2-3-2-3 0"/></symbol>
    <symbol id="i-brush" viewBox="0 0 24 24"><path d="m14 5 5-3 3 3-3 5M14 5 5 14c-2 2-2 5-2 7 2 0 5 0 7-2l9-9z"/></symbol>
    <symbol id="i-heal" viewBox="0 0 24 24"><path d="m6 18 12-12M8 5l11 11M5 8l11 11"/></symbol>
    <symbol id="i-type" viewBox="0 0 24 24"><path d="M5 5h14M12 5v14M8 19h8"/></symbol>
    <symbol id="i-shape" viewBox="0 0 24 24"><circle cx="9" cy="9" r="5"/><path d="M13 13h8v8h-8z"/></symbol>
    <symbol id="i-hand" viewBox="0 0 24 24"><path d="M7 11V7a2 2 0 0 1 4 0v3-5a2 2 0 0 1 4 0v5-3a2 2 0 0 1 4 0v7c0 4-3 7-7 7h-1c-2 0-3-1-4-3l-2-4a2 2 0 0 1 2-3Z"/></symbol>
    <symbol id="i-zoom" viewBox="0 0 24 24"><circle cx="11" cy="11" r="7"/><path d="m20 20-3.5-3.5M8 11h6M11 8v6"/></symbol>
    <symbol id="i-comment" viewBox="0 0 24 24"><path d="M5 5h14v11H9l-4 4z"/></symbol>
    <symbol id="i-wand" viewBox="0 0 24 24"><path d="m4 20 11-11M13 4l1-2 1 2 2 1-2 1-1 2-1-2-2-1zM18 12l1-2 1 2 2 1-2 1-1 2-1-2-2-1z"/></symbol>
    <symbol id="i-eye" viewBox="0 0 24 24"><path d="M3 12s3-6 9-6 9 6 9 6-3 6-9 6-9-6-9-6Z"/><circle cx="12" cy="12" r="2.5"/></symbol>
    <symbol id="i-lock" viewBox="0 0 24 24"><rect x="5" y="10" width="14" height="10" rx="2"/><path d="M8 10V7a4 4 0 0 1 8 0v3"/></symbol>
    <symbol id="i-more" viewBox="0 0 24 24"><circle cx="5" cy="12" r="1" fill="currentColor" stroke="none"/><circle cx="12" cy="12" r="1" fill="currentColor" stroke="none"/><circle cx="19" cy="12" r="1" fill="currentColor" stroke="none"/></symbol>
    <symbol id="i-undo" viewBox="0 0 24 24"><path d="M9 7 5 11l4 4M5 11h8a6 6 0 0 1 6 6"/></symbol>
    <symbol id="i-redo" viewBox="0 0 24 24"><path d="m15 7 4 4-4 4M19 11h-8a6 6 0 0 0-6 6"/></symbol>
    <symbol id="i-layout" viewBox="0 0 24 24"><rect x="3" y="4" width="18" height="16" rx="2"/><path d="M8 4v16M8 10h13"/></symbol>
    <symbol id="i-check" viewBox="0 0 24 24"><path d="m5 12 4 4L19 6"/></symbol>
    <symbol id="i-spark" viewBox="0 0 24 24"><path d="m12 3 1.4 5.6L19 10l-5.6 1.4L12 17l-1.4-5.6L5 10l5.6-1.4z"/></symbol>
    <symbol id="i-x" viewBox="0 0 24 24"><path d="m6 6 12 12M18 6 6 18"/></symbol>
    <symbol id="i-adjust" viewBox="0 0 24 24"><path d="M4 7h10M18 7h2M4 17h2M10 17h10"/><circle cx="16" cy="7" r="2"/><circle cx="8" cy="17" r="2"/></symbol>
    <symbol id="i-mask" viewBox="0 0 24 24"><rect x="3" y="5" width="18" height="14" rx="2"/><circle cx="12" cy="12" r="4"/></symbol>
    <symbol id="i-folder" viewBox="0 0 24 24"><path d="M3 6h7l2 2h9v11H3z"/></symbol>
    <symbol id="i-image" viewBox="0 0 24 24"><rect x="3" y="4" width="18" height="16" rx="2"/><circle cx="9" cy="9" r="2"/><path d="m4 17 5-5 3 3 3-3 5 5"/></symbol>
    <symbol id="i-trash" viewBox="0 0 24 24"><path d="M4 7h16M9 7V4h6v3M7 7l1 13h8l1-13M10 11v5M14 11v5"/></symbol>
  </defs>

  <style>
    text { font-family: ui-sans-serif, -apple-system, BlinkMacSystemFont, "Segoe UI", sans-serif; }
    .label { fill: #f1f3f7; font-size: 13px; font-weight: 500; }
    .body { fill: #b1b6c1; font-size: 12px; font-weight: 400; }
    .meta { fill: #747b89; font-size: 11px; font-weight: 500; }
    .value { fill: #aeb5c1; font-family: ui-monospace, "SFMono-Regular", Menlo, monospace; font-size: 11px; font-variant-numeric: tabular-nums; }
    .icon { fill: none; stroke: currentColor; stroke-width: 1.75; stroke-linecap: round; stroke-linejoin: round; }
    .divider { stroke: #292d35; stroke-width: 1; shape-rendering: crispEdges; }
  </style>

  <!-- Application frame -->
  <rect width="1440" height="900" fill="#0d0f13"/>
  <rect width="1440" height="52" fill="#14161b"/>
  <line x1="0" y1="51.5" x2="1440" y2="51.5" class="divider"/>
  <rect x="0" y="52" width="48" height="848" fill="#121419"/>
  <rect x="48" y="52" width="280" height="728" fill="#15171c"/>
  <rect x="328" y="52" width="808" height="728" fill="#101217"/>
  <rect x="1136" y="52" width="304" height="728" fill="#15171c"/>
  <rect x="48" y="780" width="1392" height="120" fill="#121419"/>
  <line x1="47.5" y1="52" x2="47.5" y2="900" class="divider"/>
  <line x1="327.5" y1="52" x2="327.5" y2="780" class="divider"/>
  <line x1="1135.5" y1="52" x2="1135.5" y2="780" class="divider"/>
  <line x1="48" y1="779.5" x2="1440" y2="779.5" class="divider"/>

  <!-- Top bar -->
  <text x="16" y="33" fill="#f5f6f9" font-size="16" font-weight="650" letter-spacing="-0.25">Estro</text>
  <line x1="70.5" y1="13" x2="70.5" y2="39" class="divider"/>
  <g color="#8b929f" class="icon"><use href="#i-chevron-left" x="82" y="16" width="20" height="20"/></g>
  <text x="111" y="26" class="label">Golden hour portraits</text>
  <text x="111" y="40" class="meta">Saved just now</text>
  <g color="#7f8794" class="icon"><use href="#i-undo" x="285" y="16" width="19" height="19"/><use href="#i-redo" x="317" y="16" width="19" height="19"/></g>

  <g filter="url(#soft-shadow)">
    <rect x="579" y="8" width="282" height="36" rx="18" fill="#1b1e25" stroke="#313640"/>
    <path d="M597 9h246" stroke="url(#agent-edge)" stroke-width="1.5" stroke-linecap="round"/>
    <circle cx="599" cy="26" r="9" fill="#202736" stroke="#4b678e"/>
    <g color="#7db8ff" class="icon"><use href="#i-spark" x="592" y="19" width="14" height="14"/></g>
    <text x="615" y="24" fill="#edf3fb" font-size="12" font-weight="550">Portrait correction ready</text>
    <text x="615" y="37" class="meta">Previewing 3 adjustments</text>
    <circle cx="838" cy="26" r="4" fill="#61c69a"/>
  </g>
  <g color="#8c939f" class="icon"><use href="#i-comment" x="1217" y="16" width="19" height="19"/></g>
  <text x="1243" y="31" class="body">Review</text>
  <rect x="1327" y="10" width="96" height="32" rx="6" fill="#4f98e8"/>
  <text x="1375" y="31" fill="#08111d" font-size="13" font-weight="650" text-anchor="middle">Export</text>

  <!-- Tool rail -->
  <rect x="6" y="64" width="36" height="36" rx="6" fill="#253247"/><rect x="6.5" y="64.5" width="35" height="35" rx="5.5" fill="none" stroke="#42668f"/>
  <g color="#75b7ff" class="icon"><use href="#i-pointer" x="15" y="73" width="18" height="18"/></g>
  <g color="#888f9b" class="icon">
    <use href="#i-crop" x="15" y="117" width="18" height="18"/>
    <use href="#i-lasso" x="15" y="161" width="18" height="18"/>
    <use href="#i-brush" x="15" y="205" width="18" height="18"/>
    <use href="#i-heal" x="15" y="249" width="18" height="18"/>
    <use href="#i-type" x="15" y="293" width="18" height="18"/>
    <use href="#i-shape" x="15" y="337" width="18" height="18"/>
    <use href="#i-hand" x="15" y="381" width="18" height="18"/>
    <use href="#i-zoom" x="15" y="425" width="18" height="18"/>
  </g>
  <line x1="11" y1="463.5" x2="37" y2="463.5" class="divider"/>
  <g color="#888f9b" class="icon"><use href="#i-comment" x="15" y="479" width="18" height="18"/><use href="#i-wand" x="15" y="523" width="18" height="18"/></g>
  <g color="#6f7682" class="icon"><use href="#i-layout" x="15" y="857" width="18" height="18"/></g>

  <!-- Layers panel -->
  <text x="64" y="80" class="label" font-size="14">Layers</text>
  <g color="#8c939f" class="icon"><use href="#i-plus" x="289" y="65" width="20" height="20"/></g>
  <rect x="60" y="96" width="256" height="30" rx="6" fill="#1c1f26"/>
  <rect x="62" y="98" width="82" height="26" rx="5" fill="#292e37"/>
  <text x="103" y="116" fill="#eef1f5" font-size="11" font-weight="550" text-anchor="middle">Layers</text>
  <text x="183" y="116" class="meta" text-anchor="middle">Media</text>
  <text x="270" y="116" class="meta" text-anchor="middle">History</text>
  <rect x="60" y="140" width="256" height="32" rx="6" fill="#1c1f26" stroke="#2b3039"/>
  <g color="#777e8b" class="icon"><use href="#i-search" x="70" y="148" width="16" height="16"/></g>
  <text x="94" y="161" class="meta" font-weight="400">Search layers</text>

  <!-- Layer rows -->
  <g color="#79808c" class="icon"><use href="#i-eye" x="67" y="195" width="16" height="16"/></g>
  <rect x="60" y="184" width="256" height="44" rx="6" fill="#202936" stroke="#3f638b"/>
  <g color="#75b7ff" class="icon"><use href="#i-eye" x="68" y="198" width="15" height="15"/></g>
  <rect x="94" y="191" width="30" height="30" rx="4" fill="#2a3340"/>
  <g color="#91bcf0" class="icon"><use href="#i-adjust" x="101" y="198" width="16" height="16"/></g>
  <text x="136" y="202" fill="#edf2f8" font-size="12" font-weight="550">Portrait correction</text>
  <text x="136" y="218" class="meta">Adjustment layer · Preview</text>
  <g color="#8090a4" class="icon"><use href="#i-more" x="288" y="197" width="16" height="16"/></g>

  <rect x="60" y="236" width="256" height="44" rx="5" fill="#17191f"/>
  <g color="#79808c" class="icon"><use href="#i-eye" x="68" y="249" width="15" height="15"/></g>
  <rect x="94" y="243" width="30" height="30" rx="4" fill="url(#thumb-a)"/>
  <text x="136" y="254" class="body" fill="#d9dde4">Portrait</text><text x="136" y="270" class="meta">Pixel layer</text>

  <rect x="60" y="288" width="256" height="44" rx="5" fill="#17191f"/>
  <g color="#79808c" class="icon"><use href="#i-eye" x="68" y="301" width="15" height="15"/></g>
  <rect x="94" y="295" width="30" height="30" rx="4" fill="#f2f3f5"/>
  <circle cx="109" cy="310" r="10" fill="#9b9ea6"/>
  <text x="136" y="306" class="body" fill="#d9dde4">Subject mask</text><text x="136" y="322" class="meta">Mask · Linked</text>

  <rect x="60" y="340" width="256" height="44" rx="5" fill="#17191f"/>
  <g color="#79808c" class="icon"><use href="#i-eye" x="68" y="353" width="15" height="15"/></g>
  <rect x="94" y="347" width="30" height="30" rx="4" fill="url(#thumb-b)"/>
  <text x="136" y="358" class="body" fill="#d9dde4">Garden</text><text x="136" y="374" class="meta">Pixel layer</text>

  <rect x="60" y="392" width="256" height="44" rx="5" fill="#17191f"/>
  <g color="#79808c" class="icon"><use href="#i-eye" x="68" y="405" width="15" height="15"/></g>
  <rect x="94" y="399" width="30" height="30" rx="4" fill="#35313b"/>
  <g color="#9399a5" class="icon"><use href="#i-folder" x="101" y="406" width="16" height="16"/></g>
  <text x="136" y="410" class="body" fill="#d9dde4">Retouching</text><text x="136" y="426" class="meta">Group · 2 layers</text>
  <g color="#676f7b" class="icon"><use href="#i-lock" x="288" y="405" width="15" height="15"/></g>

  <line x1="60" y1="461.5" x2="316" y2="461.5" class="divider"/>
  <text x="60" y="486" class="meta" font-weight="600" letter-spacing="0.4">DOCUMENT</text>
  <text x="60" y="513" class="body">2048 × 2560 px</text><text x="60" y="532" class="meta">Display P3 · 16-bit</text>
  <text x="60" y="563" class="meta">Selected layer</text><text x="60" y="583" class="body" fill="#d9dde4">Portrait correction</text>
  <line x1="60" y1="608.5" x2="316" y2="608.5" class="divider"/>
  <text x="60" y="635" class="meta">Blend</text>
  <rect x="112" y="616" width="128" height="30" rx="5" fill="#1c1f26" stroke="#2b3039"/>
  <text x="124" y="635" class="body">Normal</text><g color="#727a86" class="icon"><use href="#i-chevron-down" x="218" y="623" width="15" height="15"/></g>
  <text x="60" y="674" class="meta">Opacity</text>
  <rect x="112" y="655" width="128" height="30" rx="5" fill="#1c1f26" stroke="#2b3039"/><text x="228" y="674" class="value" text-anchor="end">100%</text>
  <line x1="60" y1="725.5" x2="316" y2="725.5" class="divider"/>
  <g color="#7d8591" class="icon"><use href="#i-plus" x="66" y="742" width="18" height="18"/><use href="#i-mask" x="110" y="742" width="18" height="18"/><use href="#i-adjust" x="154" y="742" width="18" height="18"/><use href="#i-folder" x="198" y="742" width="18" height="18"/><use href="#i-trash" x="286" y="742" width="18" height="18"/></g>

  <!-- Canvas toolbar -->
  <text x="350" y="73" class="meta" font-weight="600" letter-spacing="0.4">CANVAS</text>
  <text x="1114" y="73" class="meta" text-anchor="end">67% · Fit</text>
  <rect x="344" y="84" width="776" height="650" rx="7" fill="#0b0d11" stroke="#252a31"/>
  <path d="M344 410h776M732 84v650" stroke="#171a20" stroke-width="1"/>

  <!-- Portrait artwork: base -->
  <g clip-path="url(#photo-clip)">
    <rect x="472" y="80" width="520" height="382" fill="url(#portrait-sky)"/>
    <circle cx="873" cy="205" r="46" fill="#efc08e" opacity="0.7"/>
    <path d="M472 353 546 282l66 42 67-78 82 84 77-58 70 59 84-36v216H472Z" fill="#35444b" opacity="0.72"/>
    <path d="M472 410 564 340l83 61 86-83 86 82 91-61 82 64v327H472Z" fill="url(#portrait-ground)"/>
    <path d="M472 476c78-39 137-24 201 3 79 34 141 31 319-10v261H472Z" fill="#243429"/>
    <g fill="#17221c" opacity="0.9">
      <circle cx="505" cy="392" r="51"/><circle cx="542" cy="424" r="66"/><circle cx="950" cy="400" r="70"/><circle cx="906" cy="430" r="56"/>
    </g>
    <path d="M506 730V433m31 297V454m402 276V440m-37 290V469" stroke="#142018" stroke-width="10"/>
    <g fill="#b0a17d" opacity="0.65"><circle cx="521" cy="373" r="5"/><circle cx="547" cy="395" r="4"/><circle cx="925" cy="367" r="5"/><circle cx="953" cy="395" r="4"/></g>
    <path d="M641 730c12-129 39-220 81-236 38-15 71 28 83 84 15-47 45-75 79-57 45 24 61 112 67 209Z" fill="#151b20" opacity="0.97"/>
    <circle cx="734" cy="460" r="22" fill="#1a2024"/><circle cx="844" cy="470" r="23" fill="#1a2024"/>
    <path d="M739 481c29 12 48 36 63 71M840 492c-27 16-39 38-43 63" fill="none" stroke="#171d22" stroke-width="25" stroke-linecap="round"/>
    <path d="M640 620c84 18 188 17 312-4" fill="none" stroke="#4d624b" stroke-width="3" opacity="0.45"/>
    <rect x="472" y="80" width="520" height="650" fill="#263447" opacity="0.08"/>
  </g>

  <!-- Proposed warm correction on the right half -->
  <g clip-path="url(#proposed-half)" opacity="0.98">
    <rect x="472" y="80" width="520" height="650" fill="#f0ad76" opacity="0.09"/>
    <rect x="472" y="80" width="520" height="650" fill="#fff5e8" opacity="0.035"/>
  </g>
  <rect x="472.5" y="80.5" width="519" height="649" rx="2.5" fill="none" stroke="#3a4049"/>
  <line x1="732" y1="80" x2="732" y2="730" stroke="#dbe6f3" stroke-width="1.5" opacity="0.9"/>
  <rect x="704" y="319" width="56" height="22" rx="4" fill="#101319" opacity="0.82"/>
  <text x="732" y="334" fill="#edf2f7" font-size="10" text-anchor="middle">Before</text>
  <rect x="930" y="319" width="51" height="22" rx="4" fill="#101319" opacity="0.82"/>
  <text x="955.5" y="334" fill="#edf2f7" font-size="10" text-anchor="middle">After</text>
  <circle cx="732" cy="421" r="13" fill="#edf1f6" stroke="#20242b"/><path d="M728 416v10m8-10v10" stroke="#505863" stroke-width="1.5"/>

  <!-- Target halo around subjects -->
  <rect x="670" y="428" width="231" height="275" rx="8" fill="none" stroke="url(#agent-edge)" stroke-width="1.5" stroke-dasharray="5 5" opacity="0.75"/>
  <rect x="680" y="439" width="102" height="22" rx="4" fill="#151a22" stroke="#3b4c64"/>
  <text x="731" y="454" fill="#bcd8f8" font-size="10" text-anchor="middle">Target: subjects</text>

  <text x="350" y="757" class="meta">2048 × 2560 px</text>
  <text x="1114" y="757" class="meta" text-anchor="end">Display P3 · Soft proof off</text>

  <!-- Agent proposal drawer -->
  <g filter="url(#agent-shadow)">
    <rect x="744" y="66" width="366" height="244" rx="10" fill="#191c22" stroke="#343a45"/>
    <path d="M758 67h338" stroke="url(#agent-edge)" stroke-width="2" stroke-linecap="round"/>
    <circle cx="768" cy="93" r="12" fill="#202a3a" stroke="#46648b"/>
    <g color="#80baff" class="icon"><use href="#i-spark" x="760" y="85" width="16" height="16"/></g>
    <text x="790" y="91" fill="#f0f3f8" font-size="13" font-weight="600">Portrait correction</text>
    <text x="790" y="108" class="meta">Preview ready · Nothing applied yet</text>
    <g color="#737b88" class="icon"><use href="#i-x" x="1078" y="83" width="17" height="17"/></g>
    <line x1="760" y1="122.5" x2="1094" y2="122.5" class="divider"/>
    <text x="760" y="146" class="body" fill="#e0e4eb">Brighten the subjects while keeping the</text>
    <text x="760" y="163" class="body" fill="#e0e4eb">sunset natural and the background subdued.</text>
    <line x1="760" y1="177.5" x2="1094" y2="177.5" class="divider"/>
    <text x="760" y="201" class="meta">Exposure</text><text x="1094" y="201" class="value" text-anchor="end">+0.28 EV</text>
    <text x="760" y="223" class="meta">Temperature</text><text x="1094" y="223" class="value" text-anchor="end">+420 K</text>
    <text x="760" y="245" class="meta">Subject shadows</text><text x="1094" y="245" class="value" text-anchor="end">+14</text>
    <rect x="760" y="262" width="72" height="30" rx="6" fill="#23262d" stroke="#323740"/>
    <text x="796" y="281" class="body" text-anchor="middle">Reject</text>
    <rect x="842" y="262" width="78" height="30" rx="6" fill="#4f98e8"/>
    <text x="881" y="281" fill="#08111d" font-size="12" font-weight="650" text-anchor="middle">Apply</text>
    <text x="1094" y="281" class="meta" text-anchor="end">3 changes · Undoable</text>
  </g>

  <!-- Inspector -->
  <text x="1152" y="80" class="label" font-size="14">Inspector</text>
  <g color="#858c98" class="icon"><use href="#i-more" x="1404" y="66" width="18" height="18"/></g>
  <text x="1152" y="108" class="body" fill="#d9dde4">Portrait correction</text><text x="1152" y="124" class="meta">Adjustment layer · Preview</text>
  <rect x="1152" y="140" width="272" height="30" rx="6" fill="#1c1f26"/>
  <rect x="1154" y="142" width="133" height="26" rx="5" fill="#292e37"/>
  <text x="1220" y="160" fill="#eef1f5" font-size="11" font-weight="550" text-anchor="middle">Adjustments</text>
  <text x="1356" y="160" class="meta" text-anchor="middle">Properties</text>

  <!-- Histogram -->
  <rect x="1152" y="186" width="272" height="84" rx="6" fill="#111318" stroke="#272c34"/>
  <path d="M1161 259h8l6-5 7-9 8-3 7 6 8-18 7-23 9 12 7 26 8-9 8-30 8-7 8 20 8 31 8-14 8-23 8-11 8 14 8 33 8-9 8-17 8 4 8 21 8-8 8-4 8 12 8 7h11" fill="none" stroke="#87909d" stroke-width="1.5" opacity="0.85"/>
  <path d="M1161 259h8l6-5 7-9 8-3 7 6 8-18 7-23 9 12 7 26 8-9 8-30 8-7 8 20 8 31 8-14 8-23 8-11 8 14 8 33 8-9 8-17 8 4 8 21 8-8 8-4 8 12 8 7h11v5H1161Z" fill="#6b7f95" opacity="0.14"/>
  <text x="1162" y="199" class="meta">RGB</text><text x="1414" y="199" class="meta" text-anchor="end">No clipping</text>

  <text x="1152" y="299" class="body" fill="#e3e6eb" font-weight="550">Light</text>
  <g color="#777f8b" class="icon"><use href="#i-chevron-down" x="1406" y="286" width="16" height="16"/></g>
  <line x1="1152" y1="312.5" x2="1424" y2="312.5" class="divider"/>
  <text x="1152" y="338" class="meta">Exposure</text><rect x="1230" y="320" width="194" height="28" rx="5" fill="#1c1f26" stroke="#2b3039"/><line x1="1243" y1="334" x2="1411" y2="334" stroke="#454b55"/><circle cx="1348" cy="334" r="5" fill="#d1d6df"/><text x="1411" y="343" class="value" text-anchor="end">+0.28</text>
  <text x="1152" y="376" class="meta">Contrast</text><rect x="1230" y="358" width="194" height="28" rx="5" fill="#1c1f26" stroke="#2b3039"/><line x1="1243" y1="372" x2="1411" y2="372" stroke="#454b55"/><circle cx="1327" cy="372" r="5" fill="#d1d6df"/><text x="1411" y="381" class="value" text-anchor="end">+4</text>
  <text x="1152" y="414" class="meta">Highlights</text><rect x="1230" y="396" width="194" height="28" rx="5" fill="#1c1f26" stroke="#2b3039"/><line x1="1243" y1="410" x2="1411" y2="410" stroke="#454b55"/><circle cx="1308" cy="410" r="5" fill="#d1d6df"/><text x="1411" y="419" class="value" text-anchor="end">−9</text>
  <text x="1152" y="452" class="meta">Shadows</text><rect x="1230" y="434" width="194" height="28" rx="5" fill="#1c1f26" stroke="#2b3039"/><line x1="1243" y1="448" x2="1411" y2="448" stroke="#454b55"/><circle cx="1360" cy="448" r="5" fill="#d1d6df"/><text x="1411" y="457" class="value" text-anchor="end">+14</text>

  <line x1="1152" y1="487.5" x2="1424" y2="487.5" class="divider"/>
  <text x="1152" y="516" class="body" fill="#e3e6eb" font-weight="550">Color</text>
  <g color="#777f8b" class="icon"><use href="#i-chevron-down" x="1406" y="503" width="16" height="16"/></g>
  <text x="1152" y="552" class="meta">Temperature</text><rect x="1230" y="534" width="194" height="28" rx="5" fill="#1c1f26" stroke="#2b3039"/><line x1="1243" y1="548" x2="1411" y2="548" stroke="#4b4d54"/><circle cx="1365" cy="548" r="5" fill="#e0d3c0"/><text x="1411" y="557" class="value" text-anchor="end">+420</text>
  <text x="1152" y="590" class="meta">Tint</text><rect x="1230" y="572" width="194" height="28" rx="5" fill="#1c1f26" stroke="#2b3039"/><line x1="1243" y1="586" x2="1411" y2="586" stroke="#4b4d54"/><circle cx="1332" cy="586" r="5" fill="#d1d6df"/><text x="1411" y="595" class="value" text-anchor="end">+2</text>
  <text x="1152" y="628" class="meta">Vibrance</text><rect x="1230" y="610" width="194" height="28" rx="5" fill="#1c1f26" stroke="#2b3039"/><line x1="1243" y1="624" x2="1411" y2="624" stroke="#4b4d54"/><circle cx="1341" cy="624" r="5" fill="#d1d6df"/><text x="1411" y="633" class="value" text-anchor="end">+6</text>

  <line x1="1152" y1="665.5" x2="1424" y2="665.5" class="divider"/>
  <text x="1152" y="694" class="body" fill="#e3e6eb" font-weight="550">Mask</text>
  <text x="1152" y="723" class="meta">Subject mask · Refine</text>
  <rect x="1326" y="704" width="98" height="28" rx="5" fill="#1f2229" stroke="#2d323a"/><text x="1375" y="722" class="body" text-anchor="middle">Edit mask</text>
  <text x="1415" y="757" class="meta" text-anchor="end">Reset adjustments</text>

  <!-- Filmstrip -->
  <rect x="48" y="780" width="1392" height="120" fill="#121419"/>
  <rect x="48" y="780" width="182" height="120" fill="#14161b"/>
  <line x1="229.5" y1="780" x2="229.5" y2="900" class="divider"/>
  <text x="64" y="807" class="label">Filmstrip</text>
  <text x="64" y="828" class="meta">5 photos visible</text>
  <text x="64" y="866" class="body">Golden hour</text><text x="64" y="883" class="meta">12 photos · 284 MB</text>

  <rect x="246" y="794" width="82" height="94" rx="5" fill="#17191e"/>
  <rect x="254" y="802" width="66" height="66" rx="4" fill="url(#thumb-b)"/><path d="M254 850 273 828l15 13 12-9 20 18v18h-66Z" fill="#24352c"/><text x="287" y="882" class="meta" text-anchor="middle">IMG_1842</text>

  <rect x="338" y="791" width="88" height="100" rx="6" fill="#202936" stroke="#4f98e8" stroke-width="1.5"/>
  <rect x="347" y="800" width="70" height="70" rx="4" fill="url(#thumb-a)"/><circle cx="401" cy="819" r="8" fill="#edbc88" opacity="0.8"/><path d="M347 851 365 829l17 14 14-10 21 18v19h-70Z" fill="#24362d"/><text x="382" y="884" fill="#dce9f7" font-size="11" text-anchor="middle">IMG_1847</text>
  <path d="M347 792h70" stroke="url(#agent-edge)" stroke-width="2" stroke-linecap="round"/>

  <rect x="436" y="794" width="82" height="94" rx="5" fill="#17191e"/>
  <rect x="444" y="802" width="66" height="66" rx="4" fill="url(#thumb-c)"/><circle cx="472" cy="835" r="14" fill="#d1a38d" opacity="0.36"/><circle cx="485" cy="835" r="14" fill="#d1a38d" opacity="0.28"/><text x="477" y="882" class="meta" text-anchor="middle">IMG_1851</text>

  <rect x="528" y="794" width="82" height="94" rx="5" fill="#17191e"/>
  <rect x="536" y="802" width="66" height="66" rx="4" fill="url(#thumb-d)"/><path d="M536 848 553 831l17 10 14-13 18 19v21h-66Z" fill="#25333b"/><text x="569" y="882" class="meta" text-anchor="middle">IMG_1858</text>

  <rect x="620" y="794" width="82" height="94" rx="5" fill="#17191e"/>
  <rect x="628" y="802" width="66" height="66" rx="4" fill="url(#thumb-a)" opacity="0.72"/><text x="661" y="882" class="meta" text-anchor="middle">IMG_1860</text>
  <line x1="726.5" y1="794" x2="726.5" y2="888" class="divider"/>
  <text x="750" y="824" class="meta">Batch status</text><text x="750" y="847" class="body" fill="#d7dbe2">1 preview active</text><text x="750" y="866" class="meta">Originals remain unchanged</text>
</svg>
