<svg xmlns="http://www.w3.org/2000/svg" width="1440" height="900" viewBox="0 0 1440 900" role="img" aria-labelledby="title description">
  <title id="title">Estro core system and component contract</title>
  <desc id="description">A dark design-system board documenting Estro's colors, typography, density, icon language, editor shell measurements, responsive behavior, reusable controls, focus, loading, motion, and progressive disclosure.</desc>

  <defs>
    <linearGradient id="agent-edge" x1="0" y1="0" x2="1" y2="0">
      <stop offset="0" stop-color="#56a8ff"/>
      <stop offset="0.58" stop-color="#747df4"/>
      <stop offset="1" stop-color="#a17df2"/>
    </linearGradient>
    <linearGradient id="media" x1="0" y1="0" x2="1" y2="1">
      <stop offset="0" stop-color="#7188a3"/>
      <stop offset="0.5" stop-color="#c18874"/>
      <stop offset="1" stop-color="#263846"/>
    </linearGradient>
    <symbol id="i-pointer" viewBox="0 0 24 24"><path d="m5 3 14 9-7 2-3 7z"/></symbol>
    <symbol id="i-image" viewBox="0 0 24 24"><rect x="3" y="4" width="18" height="16" rx="2"/><circle cx="9" cy="9" r="2"/><path d="m4 17 5-5 3 3 3-3 5 5"/></symbol>
    <symbol id="i-film" viewBox="0 0 24 24"><rect x="3" y="5" width="18" height="14" rx="2"/><path d="M7 5v14M17 5v14M3 9h4M3 15h4M17 9h4M17 15h4"/></symbol>
    <symbol id="i-spark" viewBox="0 0 24 24"><path d="m12 3 1.4 5.6L19 10l-5.6 1.4L12 17l-1.4-5.6L5 10l5.6-1.4z"/></symbol>
    <symbol id="i-check" viewBox="0 0 24 24"><path d="m5 12 4 4L19 6"/></symbol>
    <symbol id="i-alert" viewBox="0 0 24 24"><path d="M12 3 2.5 20h19zM12 9v5M12 17h.01"/></symbol>
    <symbol id="i-chevron" viewBox="0 0 24 24"><path d="m6 9 6 6 6-6"/></symbol>
    <symbol id="i-search" viewBox="0 0 24 24"><circle cx="11" cy="11" r="7"/><path d="m20 20-3.5-3.5"/></symbol>
    <symbol id="i-undo" viewBox="0 0 24 24"><path d="M9 7 5 11l4 4M5 11h8a6 6 0 0 1 6 6"/></symbol>
    <symbol id="i-lock" viewBox="0 0 24 24"><rect x="5" y="10" width="14" height="10" rx="2"/><path d="M8 10V7a4 4 0 0 1 8 0v3"/></symbol>
    <symbol id="i-clock" viewBox="0 0 24 24"><circle cx="12" cy="12" r="9"/><path d="M12 7v6l4 2"/></symbol>
  </defs>

  <style>
    text { font-family: ui-sans-serif, -apple-system, BlinkMacSystemFont, "Segoe UI", sans-serif; }
    .title { fill: #f1f3f7; font-size: 15px; font-weight: 630; }
    .heading { fill: #e9ecf1; font-size: 12px; font-weight: 620; }
    .label { fill: #dfe3e9; font-size: 10px; font-weight: 560; }
    .body { fill: #adb3be; font-size: 10px; font-weight: 400; }
    .meta { fill: #747c89; font-size: 9px; font-weight: 500; }
    .micro { fill: #69717e; font-size: 8px; font-weight: 650; letter-spacing: 0.7px; }
    .value { fill: #aab2bf; font-family: ui-monospace, "SFMono-Regular", Menlo, monospace; font-size: 9px; font-variant-numeric: tabular-nums; }
    .icon { fill: none; stroke: currentColor; stroke-width: 1.75; stroke-linecap: round; stroke-linejoin: round; }
    .divider { stroke: #292d35; stroke-width: 1; shape-rendering: crispEdges; }
    .soft { stroke: #242831; stroke-width: 1; shape-rendering: crispEdges; }
  </style>

  <rect width="1440" height="900" fill="#0d0f13"/>

  <!-- Header -->
  <text x="40" y="34" fill="#f5f6f9" font-size="17" font-weight="650">Estro</text>
  <text x="40" y="66" fill="#eef1f5" font-size="24" font-weight="620" letter-spacing="-0.35">Core system + component contract</text>
  <text x="40" y="87" class="body" font-size="11">The smallest shared visual and interaction foundation Phase 1 and Phase 2 may implement.</text>
  <text x="1400" y="36" class="micro" text-anchor="end">PRE-PHASE 1 · REVIEW DRAFT</text>
  <g transform="translate(988 66)">
    <circle cx="4" cy="3" r="3" fill="#65c198"/><text x="15" y="7" class="meta">8 representative contrast pairs pass</text>
    <circle cx="216" cy="3" r="3" fill="#73b2f2"/><text x="227" y="7" class="meta">213-feature order unchanged</text>
  </g>

  <!-- Column backplates -->
  <rect x="40" y="112" width="392" height="624" rx="8" fill="#111318" stroke="#2d3139"/>
  <rect x="456" y="112" width="520" height="624" rx="8" fill="#111318" stroke="#2d3139"/>
  <rect x="1000" y="112" width="400" height="624" rx="8" fill="#111318" stroke="#2d3139"/>

  <!-- Left: color -->
  <text x="60" y="140" class="micro">01 · COLOR + TYPE</text>
  <text x="60" y="168" class="title">Quiet chrome. Meaningful color.</text>
  <text x="60" y="187" class="body">Neutral surfaces frame the media; color names state or action.</text>

  <text x="60" y="218" class="micro">SURFACE LADDER</text>
  <rect x="60" y="230" width="64" height="42" rx="4" fill="#0b0d11" stroke="#242831"/>
  <rect x="132" y="230" width="64" height="42" rx="4" fill="#0d0f13" stroke="#242831"/>
  <rect x="204" y="230" width="64" height="42" rx="4" fill="#15171c" stroke="#30343c"/>
  <rect x="276" y="230" width="64" height="42" rx="4" fill="#1d2026" stroke="#353a43"/>
  <rect x="348" y="230" width="64" height="42" rx="4" fill="#262a32" stroke="#3b414b"/>
  <text x="92" y="289" class="meta" text-anchor="middle">Canvas</text>
  <text x="164" y="289" class="meta" text-anchor="middle">App</text>
  <text x="236" y="289" class="meta" text-anchor="middle">Panel</text>
  <text x="308" y="289" class="meta" text-anchor="middle">Raised</text>
  <text x="380" y="289" class="meta" text-anchor="middle">Hover</text>

  <text x="60" y="322" class="micro">SEMANTIC COLOR</text>
  <g>
    <circle cx="72" cy="344" r="9" fill="#559fea"/><text x="89" y="348" class="label">Accent</text><text x="153" y="348" class="meta">selection / primary action</text>
    <circle cx="72" cy="370" r="9" fill="#65c198"/><text x="89" y="374" class="label">Success</text><text x="153" y="374" class="meta">complete / preserved</text>
    <circle cx="72" cy="396" r="9" fill="#e3b15b"/><text x="89" y="400" class="label">Warning</text><text x="153" y="400" class="meta">attention / consequence</text>
    <circle cx="72" cy="422" r="9" fill="#e47d85"/><text x="89" y="426" class="label">Danger</text><text x="153" y="426" class="meta">failure / destructive</text>
    <rect x="63" y="440" width="18" height="18" rx="9" fill="none" stroke="url(#agent-edge)" stroke-width="3"/>
    <text x="89" y="453" class="label">Agent</text><text x="153" y="453" class="meta">active agent state only</text>
  </g>
  <line x1="60" y1="476" x2="412" y2="476" class="soft"/>

  <text x="60" y="503" class="micro">TYPE ROLES</text>
  <text x="60" y="535" fill="#f1f3f7" font-size="22" font-weight="610">Page title</text><text x="412" y="533" class="value" text-anchor="end">28 / 1.15</text>
  <text x="60" y="565" fill="#f1f3f7" font-size="16" font-weight="600">Section heading</text><text x="412" y="563" class="value" text-anchor="end">16 / 1.3</text>
  <text x="60" y="593" fill="#b1b6c1" font-size="14">Body explains the result in plain language.</text><text x="412" y="591" class="value" text-anchor="end">14 / 1.5</text>
  <text x="60" y="621" fill="#dfe3e9" font-size="13" font-weight="500">Control label</text><text x="412" y="619" class="value" text-anchor="end">13 / 1.3</text>
  <text x="60" y="647" fill="#747c89" font-size="12">Metadata is never critical.</text><text x="412" y="645" class="value" text-anchor="end">12 / 1.35</text>
  <text x="60" y="676" class="value" font-size="12">00:00:12:08 · 3840 × 2160</text>
  <text x="60" y="700" class="meta">System UI · 400 / 500 / 600 · technical values use tabular numerals</text>
  <text x="60" y="721" class="meta">Explanations cap near 60–75 characters; mobile inputs stay ≥16px.</text>

  <!-- Center: shell -->
  <text x="476" y="140" class="micro">02 · PERSISTENT SHELL</text>
  <text x="476" y="168" class="title">Protect the media stage first.</text>
  <text x="476" y="187" class="body">Panels collapse before the canvas or program monitor becomes unusable.</text>

  <!-- Dimensioned shell miniature -->
  <rect x="476" y="212" width="480" height="278" rx="6" fill="#0e1014" stroke="#343943"/>
  <rect x="476" y="212" width="480" height="29" rx="6" fill="#17191f"/>
  <rect x="476" y="235" width="480" height="6" fill="#17191f"/>
  <rect x="476" y="241" width="22" height="249" fill="#121419"/>
  <rect x="498" y="241" width="94" height="165" fill="#15171c"/>
  <rect x="592" y="241" width="264" height="165" fill="#101217"/>
  <rect x="856" y="241" width="100" height="165" fill="#15171c"/>
  <rect x="498" y="406" width="458" height="84" fill="#121419"/>
  <path d="M498 240.5v249M592 241v165M856 241v165M498 406h458" class="divider"/>

  <text x="488" y="230" fill="#f1f3f7" font-size="8" font-weight="650">Estro</text>
  <text x="526" y="230" class="meta">Project · Saved</text>
  <rect x="666" y="217" width="116" height="19" rx="10" fill="#1b1e25" stroke="#343a45"/>
  <path d="M678 218h92" stroke="url(#agent-edge)" stroke-width="1.2" stroke-linecap="round"/>
  <g color="#79b7f6" class="icon"><use href="#i-spark" x="676" y="221" width="11" height="11"/></g><text x="693" y="230" class="meta">Agent activity</text>
  <text x="940" y="230" fill="#9ec5eb" font-size="8" text-anchor="end">Export</text>

  <g color="#79818d" class="icon"><use href="#i-pointer" x="480" y="250" width="14" height="14"/><use href="#i-image" x="480" y="280" width="14" height="14"/><use href="#i-film" x="480" y="310" width="14" height="14"/></g>
  <text x="511" y="260" class="micro">LAYERS / MEDIA</text>
  <rect x="510" y="276" width="70" height="27" rx="3" fill="#20242b"/><text x="518" y="292" class="meta">Primary asset</text>
  <rect x="510" y="311" width="70" height="27" rx="3" fill="#191c22"/><text x="518" y="327" class="meta">Adjustment</text>
  <rect x="510" y="346" width="70" height="27" rx="3" fill="#191c22"/><text x="518" y="362" class="meta">Background</text>

  <rect x="622" y="261" width="204" height="114" rx="3" fill="url(#media)"/>
  <path d="M622 341c36-14 62-7 90 4 34 13 65 9 114-17v47H622z" fill="#24353f" opacity=".9"/>
  <text x="724" y="394" class="meta" text-anchor="middle">Center stage remains the largest usable region</text>

  <text x="868" y="260" class="micro">INSPECTOR</text>
  <text x="868" y="284" class="meta">Position</text><text x="944" y="284" class="value" text-anchor="end">0, 0</text>
  <line x1="868" y1="294" x2="944" y2="294" class="soft"/>
  <text x="868" y="315" class="meta">Scale</text><text x="944" y="315" class="value" text-anchor="end">100%</text>
  <line x1="868" y1="325" x2="944" y2="325" class="soft"/>
  <text x="868" y="346" class="meta">Rotation</text><text x="944" y="346" class="value" text-anchor="end">0°</text>
  <g color="#707986" class="icon"><use href="#i-chevron" x="929" y="366" width="12" height="12"/></g><text x="868" y="376" class="meta">Advanced</text>

  <text x="510" y="421" class="micro">TIMELINE · 272PX INITIAL</text>
  <line x1="540" y1="439" x2="944" y2="439" class="soft"/>
  <rect x="553" y="449" width="112" height="15" rx="2" fill="#33698f"/>
  <rect x="667" y="449" width="148" height="15" rx="2" fill="#745c93"/>
  <rect x="553" y="469" width="262" height="8" rx="2" fill="#39556c"/>
  <line x1="700" y1="429" x2="700" y2="482" stroke="#dce9f4" stroke-width="1"/>

  <!-- Dimension labels -->
  <text x="716" y="207" class="value" text-anchor="middle">52px top bar</text>
  <text x="466" y="363" class="value" text-anchor="middle" transform="rotate(-90 466 363)">48px rail</text>
  <text x="545" y="502" class="value" text-anchor="middle">280px left · 224–360</text>
  <text x="906" y="502" class="value" text-anchor="middle">304px inspector · 272–400</text>
  <text x="716" y="519" class="meta" text-anchor="middle">Photo filmstrip: 120px only when multi-asset context exists</text>

  <line x1="476" y1="540" x2="956" y2="540" class="soft"/>
  <text x="476" y="566" class="micro">CONTENT-FIT TRANSITIONS</text>
  <g>
    <rect x="476" y="582" width="108" height="83" rx="5" fill="#15181e" stroke="#35404b"/>
    <rect x="484" y="591" width="92" height="7" rx="2" fill="#262a32"/><rect x="484" y="602" width="12" height="55" fill="#20242b"/><rect x="498" y="602" width="20" height="38" fill="#262a32"/><rect x="520" y="602" width="33" height="38" fill="#1b1f25"/><rect x="555" y="602" width="21" height="38" fill="#262a32"/><rect x="498" y="642" width="78" height="15" fill="#20242b"/>
    <text x="530" y="681" class="label" text-anchor="middle">Wide</text><text x="530" y="695" class="value" text-anchor="middle">1440+</text>

    <rect x="596" y="582" width="108" height="83" rx="5" fill="#15181e" stroke="#313741"/>
    <rect x="604" y="591" width="92" height="7" rx="2" fill="#262a32"/><rect x="604" y="602" width="12" height="55" fill="#20242b"/><rect x="618" y="602" width="20" height="38" fill="#262a32"/><rect x="640" y="602" width="33" height="38" fill="#1b1f25"/><rect x="675" y="602" width="21" height="38" fill="#262a32"/><rect x="618" y="642" width="78" height="15" fill="#20242b"/>
    <text x="650" y="681" class="label" text-anchor="middle">Standard</text><text x="650" y="695" class="value" text-anchor="middle">1180–1439</text>

    <rect x="716" y="582" width="108" height="83" rx="5" fill="#15181e" stroke="#313741"/>
    <rect x="724" y="591" width="92" height="7" rx="2" fill="#262a32"/><rect x="724" y="602" width="12" height="55" fill="#20242b"/><rect x="738" y="602" width="78" height="38" fill="#1b1f25"/><rect x="738" y="642" width="78" height="15" fill="#20242b"/>
    <rect x="796" y="607" width="16" height="28" fill="#2a3039" stroke="#44576a"/>
    <text x="770" y="681" class="label" text-anchor="middle">Compact</text><text x="770" y="695" class="value" text-anchor="middle">900–1179</text>

    <rect x="836" y="582" width="120" height="83" rx="5" fill="#15181e" stroke="#313741"/>
    <rect x="844" y="591" width="104" height="7" rx="2" fill="#262a32"/><rect x="844" y="602" width="104" height="55" fill="#1b1f25"/>
    <rect x="858" y="614" width="76" height="18" rx="3" fill="#20242b"/><text x="896" y="626" class="meta" text-anchor="middle">Basic supported flow</text>
    <text x="896" y="681" class="label" text-anchor="middle">Narrow</text><text x="896" y="695" class="value" text-anchor="middle">&lt;900</text>
  </g>
  <text x="476" y="720" class="meta">Complete editor: 1180×700 minimum · 1280×720 recommended · 200% zoom and 320px reflow for supported flows</text>

  <!-- Right: components -->
  <text x="1020" y="140" class="micro">03 · REUSABLE COMPONENTS</text>
  <text x="1020" y="168" class="title">One control, every honest state.</text>
  <text x="1020" y="187" class="body">UI and WebMCP expose the same target, validation, revision, and Undo.</text>

  <text x="1020" y="218" class="micro">ACTIONS</text>
  <rect x="1020" y="230" width="92" height="32" rx="6" fill="#559fea"/><text x="1066" y="250" fill="#08111c" font-size="10" font-weight="650" text-anchor="middle">Primary</text>
  <rect x="1122" y="230" width="92" height="32" rx="6" fill="#20232a" stroke="#343943"/><text x="1168" y="250" class="label" text-anchor="middle">Secondary</text>
  <rect x="1224" y="230" width="72" height="32" rx="6" fill="transparent"/><text x="1260" y="250" class="label" text-anchor="middle">Ghost</text>
  <rect x="1306" y="230" width="74" height="32" rx="6" fill="#211b1f" stroke="#54323a"/><text x="1343" y="250" fill="#e79399" font-size="10" font-weight="560" text-anchor="middle">Delete</text>
  <text x="1020" y="279" class="meta">One filled primary action per local task · pointer press 0.96 · keyboard is immediate</text>

  <text x="1020" y="309" class="micro">FIELD + SLIDER</text>
  <text x="1020" y="331" class="label">Opacity</text>
  <rect x="1020" y="340" width="238" height="6" rx="3" fill="#2b3038"/><rect x="1020" y="340" width="172" height="6" rx="3" fill="#5aa4eb"/><circle cx="1192" cy="343" r="7" fill="#dfe9f3" stroke="#17212c"/>
  <rect x="1270" y="326" width="110" height="34" rx="6" fill="#191c22" stroke="#3a414c"/><text x="1282" y="347" class="value">72%</text><text x="1368" y="347" class="meta" text-anchor="end">Reset</text>
  <text x="1020" y="378" class="meta">Visible label · units · keyboard increments · reset · min/max/default in semantics</text>

  <text x="1020" y="408" class="micro">SELECTION, FOCUS, AGENT TARGET</text>
  <rect x="1020" y="422" width="108" height="48" rx="6" fill="#1a1e25" stroke="#4d83b5"/><g color="#74b5f6" class="icon"><use href="#i-image" x="1032" y="435" width="18" height="18"/></g><text x="1058" y="446" class="label">Selected</text><text x="1058" y="460" class="meta">user state</text>
  <rect x="1140" y="422" width="108" height="48" rx="6" fill="#1a1e25" stroke="#7fd2ff" stroke-width="2"/><g color="#9adfff" class="icon"><use href="#i-pointer" x="1152" y="435" width="18" height="18"/></g><text x="1178" y="446" class="label">Focused</text><text x="1178" y="460" class="meta">keyboard</text>
  <rect x="1260" y="422" width="120" height="48" rx="6" fill="#1a1e25" stroke="url(#agent-edge)" stroke-width="2"/><g color="#82baff" class="icon"><use href="#i-spark" x="1272" y="435" width="18" height="18"/></g><text x="1298" y="446" class="label">Targeted</text><text x="1298" y="460" class="meta">agent + text label</text>

  <text x="1020" y="500" class="micro">PROGRESS + RESULT</text>
  <rect x="1020" y="514" width="360" height="58" rx="7" fill="#191d24" stroke="#334150"/>
  <g color="#79b6f5" class="icon"><use href="#i-clock" x="1033" y="526" width="16" height="16"/></g>
  <text x="1057" y="535" class="label">Rendering social cut</text><text x="1364" y="535" class="meta" text-anchor="end">Cancel</text>
  <text x="1057" y="551" class="meta">744 / 1,820 frames · Encoding H.264</text>
  <rect x="1057" y="560" width="307" height="3" rx="2" fill="#2b3038"/><rect x="1057" y="560" width="126" height="3" rx="2" fill="#68adf2"/>

  <rect x="1020" y="582" width="174" height="66" rx="7" fill="#191d22" stroke="#35433c"/>
  <g color="#65c198" class="icon"><use href="#i-check" x="1033" y="594" width="16" height="16"/></g>
  <text x="1057" y="603" class="label">Edit complete</text><text x="1033" y="624" class="meta">Revision 18 · 3 clips</text>
  <g color="#a9bdd3" class="icon"><use href="#i-undo" x="1033" y="630" width="13" height="13"/></g><text x="1052" y="641" fill="#bdccdb" font-size="8">Undo</text>
  <rect x="1206" y="582" width="174" height="66" rx="7" fill="#1b191d" stroke="#4b343a"/>
  <g color="#e47d85" class="icon"><use href="#i-alert" x="1219" y="594" width="16" height="16"/></g>
  <text x="1243" y="603" class="label">Couldn’t decode clip</text><text x="1219" y="624" class="meta">Project unchanged</text><text x="1364" y="641" fill="#cbb7bc" font-size="8" text-anchor="end">Use worker</text>

  <text x="1020" y="678" class="micro">PROGRESSIVE DISCLOSURE</text>
  <rect x="1020" y="690" width="360" height="31" rx="5" fill="#191c22" stroke="#30353e"/>
  <text x="1032" y="709" class="label">Advanced transform</text><text x="1243" y="709" class="meta">3 controls hidden</text>
  <g color="#737c89" class="icon"><use href="#i-chevron" x="1353" y="698" width="14" height="14"/></g>
  <text x="1020" y="734" class="meta">Active overrides, validation, consequences, and agent changes never stay hidden.</text>

  <!-- Footer motion + accessibility strip -->
  <rect x="40" y="760" width="1360" height="100" rx="8" fill="#111318" stroke="#2d3139"/>
  <text x="60" y="787" class="micro">04 · MOTION, LOADING, ACCESSIBILITY</text>
  <g>
    <text x="60" y="815" class="label">Immediate</text><text x="60" y="833" class="meta">keyboard · scrub · trim · tool switch</text>
    <line x1="190" y1="802" x2="190" y2="842" class="soft"/>
    <text x="210" y="815" class="label">100–180ms</text><text x="210" y="833" class="meta">press · tooltip · popover</text>
    <line x1="350" y1="802" x2="350" y2="842" class="soft"/>
    <text x="370" y="815" class="label">180–280ms</text><text x="370" y="833" class="meta">drawer · sheet · modal</text>
    <line x1="510" y1="802" x2="510" y2="842" class="soft"/>
    <text x="530" y="815" class="label">Wait ladder</text><text x="530" y="833" class="meta">local → island → durable job</text>
    <line x1="688" y1="802" x2="688" y2="842" class="soft"/>
    <g color="#7fd2ff" class="icon"><use href="#i-pointer" x="708" y="805" width="16" height="16"/></g><text x="732" y="815" class="label">2px focus-visible</text><text x="708" y="833" class="meta">forced-colors safe · restore focus</text>
    <line x1="916" y1="802" x2="916" y2="842" class="soft"/>
    <g color="#65c198" class="icon"><use href="#i-check" x="936" y="805" width="16" height="16"/></g><text x="960" y="815" class="label">40px desktop · 44px touch</text><text x="936" y="833" class="meta">24px WCAG floor or valid exception</text>
    <line x1="1190" y1="802" x2="1190" y2="842" class="soft"/>
    <g color="#9db2c7" class="icon"><use href="#i-lock" x="1210" y="805" width="16" height="16"/></g><text x="1234" y="815" class="label">Reduced motion</text><text x="1210" y="833" class="meta">static cues remain · no spectral travel</text>
  </g>
  <text x="40" y="885" class="meta">Implementation must verify OKLCH gamut, APCA, keyboard traversal, 200% zoom, screen-reader announcements, and the final browser matrix.</text>
  <text x="1400" y="885" class="meta" text-anchor="end">No framework or dependency selected by this contract</text>
</svg>
